HIERARCHY
ROOT root
{
	OFFSET	0	13.1	24.9
	CHANNELS 6  Xposition Yposition Zposition Xrotation Yrotation Zrotation
	JOINT spine_1
	{
		OFFSET	0	9.99999	0
		CHANNELS 3  Xrotation Yrotation Zrotation
		JOINT spine_2
		{
			OFFSET	0	112	-10
			CHANNELS 3  Xrotation Yrotation Zrotation
			JOINT spine_3
			{
				OFFSET	0	206.5	19.3
				CHANNELS 3  Xrotation Yrotation Zrotation
				JOINT spine_4
				{
					OFFSET	0	110.4	14.6
					CHANNELS 3  Xrotation Yrotation Zrotation
					JOINT neck_1
					{
						OFFSET	0	71.8	-50.3
						CHANNELS 3  Xrotation Yrotation Zrotation
						JOINT neck_2
						{
							OFFSET	0	86.2	-25.8
							CHANNELS 3  Xrotation Yrotation Zrotation
							JOINT head_ee
							{
								OFFSET	0	179.8	-8.7
								CHANNELS 3  Xrotation Yrotation Zrotation
								End Site
								{
									OFFSET	1	0	0
								}
							}
						}
					}
					JOINT left_clavicle
					{
						OFFSET	-43.2	22.4	-70.8
						CHANNELS 3  Xrotation Yrotation Zrotation
						JOINT left_shoulder
						{
							OFFSET	-93.9	-5.79999	48.7
							CHANNELS 3  Xrotation Yrotation Zrotation
							JOINT left_elbow
							{
								OFFSET	-291.4	-30.8	15.2
								CHANNELS 3  Xrotation Yrotation Zrotation
								JOINT left_lowarm_twist
								{
									OFFSET	-110.7	-3.89999	13.6
									CHANNELS 3  Xrotation Yrotation Zrotation
									JOINT left_hand
									{
										OFFSET	-110.7	-3.89999	13.6
										CHANNELS 3  Xrotation Yrotation Zrotation
										JOINT left_ee
										{
											OFFSET	-80.8	-5.10001	12.1
											CHANNELS 3  Xrotation Yrotation Zrotation
											End Site
											{
												OFFSET	1	0	0
											}
										}
									}
								}
							}
						}
					}
					JOINT right_clavicle
					{
						OFFSET	43.2	22.4	-70.8
						CHANNELS 3  Xrotation Yrotation Zrotation
						JOINT right_shoulder
						{
							OFFSET	93.9	-5.79999	48.7
							CHANNELS 3  Xrotation Yrotation Zrotation
							JOINT right_elbow
							{
								OFFSET	291.4	-30.8	15.2
								CHANNELS 3  Xrotation Yrotation Zrotation
								JOINT right_lowarm_twist
								{
									OFFSET	110.7	-3.89999	13.6
									CHANNELS 3  Xrotation Yrotation Zrotation
									JOINT right_hand
									{
										OFFSET	110.7	-3.89999	13.6
										CHANNELS 3  Xrotation Yrotation Zrotation
										JOINT right_ee
										{
											OFFSET	80.8	-5.10001	12.1
											CHANNELS 3  Xrotation Yrotation Zrotation
											End Site
											{
												OFFSET	1	0	0
											}
										}
									}
								}
							}
						}
					}
				}
			}
		}
	}
	JOINT left_hip
	{
		OFFSET	-82.8	-127.5	0.300001
		CHANNELS 3  Xrotation Yrotation Zrotation
		JOINT left_knee
		{
			OFFSET	-28.2	-396.7	2.2
			CHANNELS 3  Xrotation Yrotation Zrotation
			JOINT left_ankle
			{
				OFFSET	-11.7	-411.3	35.4
				CHANNELS 3  Xrotation Yrotation Zrotation
				JOINT left_toes
				{
					OFFSET	0	-60	-88.6
					CHANNELS 3  Xrotation Yrotation Zrotation
					JOINT left_foot_ee
					{
						OFFSET	-22.5	-16.5	-42.2
						CHANNELS 3  Xrotation Yrotation Zrotation
						End Site
						{
							OFFSET	1	0	0
						}
					}
				}
			}
		}
	}
	JOINT right_hip
	{
		OFFSET	82.8	-127.5	0.300001
		CHANNELS 3  Xrotation Yrotation Zrotation
		JOINT right_knee
		{
			OFFSET	28.2	-396.7	2.2
			CHANNELS 3  Xrotation Yrotation Zrotation
			JOINT right_ankle
			{
				OFFSET	11.7	-411.3	35.4
				CHANNELS 3  Xrotation Yrotation Zrotation
				JOINT right_toes
				{
					OFFSET	0	-60	-88.6
					CHANNELS 3  Xrotation Yrotation Zrotation
					JOINT right_foot_ee
					{
						OFFSET	22.5	-16.5	-42.2
						CHANNELS 3  Xrotation Yrotation Zrotation
						End Site
						{
							OFFSET	1	0	0
						}
					}
				}
			}
		}
	}
}
MOTION
Frames: 15
Frame Time: 0.02
3440.59 706.839 -1207.0 -1.10666 70.6539 9.095 0.368988 -0.0717814 -1.58192 0.37038 0.029013 -1.58328 0.370048 0.351257 -1.54411 0.366735 0.103017 -1.5802 -16.324 12.069 10.9294 -16.2614 16.9428 14.4805 -0.0 0.0 -0.0 7.34869 16.2157 13.6119 -45.5039 -37.3123 65.4267 0.456816 -12.7511 0.051043 -2.48696 -0.0942378 0.303558 -1.25812 5.51346 -5.949 -0.0 0.0 -0.0 12.1973 21.8148 -24.2466 8.73447 28.7131 -54.9404 1.60891 38.5522 -0.562713 30.3364 -0.055834 3.82993 3.28248 -4.24522 -24.1653 0.0 0.0 0.0 17.17 -11.3363 -17.562 4.14479 -0.192738 -0.606596 -9.5078 2.59558 1.42454 -10.3127 0.0 0.0 -0.0 0.0 -0.0 -17.34 -20.7314 -1.59441 -9.59002 -0.274498 -1.44446 29.8338 28.9367 4.72331 -10.2843 0.0 0.0 0.0 0.0 0.0 
3423.45 705.111 -1203.1 -2.42865 70.5641 10.5929 0.441816 -0.0707906 -1.46753 0.443014 0.0227254 -1.46906 0.442817 0.319976 -1.43398 0.439958 0.0895155 -1.46651 -14.9894 13.3307 11.7862 -14.8787 18.5422 15.4759 -0.0 0.0 -0.0 7.46826 15.8043 13.841 -44.8121 -37.1381 64.9212 0.445852 -12.4547 0.0486508 -1.97693 -0.073837 0.241637 -1.5232 6.05243 -7.44983 -0.0 0.0 -0.0 12.1354 22.7333 -24.0241 8.00486 28.5178 -54.6648 1.65481 39.3399 -0.591565 31.0848 -0.0315547 3.92243 3.32125 -4.02514 -24.3657 0.0 0.0 0.0 16.582 -10.4533 -17.243 4.85071 -0.229925 -0.708479 -6.09021 1.27701 0.909948 -10.381 0.0 0.0 -0.0 0.0 -0.0 -16.8533 -20.6781 -0.791964 -9.24347 -0.268813 -1.39158 28.7338 29.8781 4.63882 -11.5354 0.0 0.0 0.0 0.0 0.0 
3409.56 705.275 -1201.88 -3.12075 71.0593 11.2 0.590235 -0.101661 -1.37612 0.591289 -0.0138974 -1.37979 0.591946 0.262479 -1.35467 0.589387 0.0452608 -1.37912 -15.1631 13.6537 12.507 -15.0144 18.7829 16.278 -0.0 0.0 -0.0 7.56396 15.5096 14.0232 -43.9222 -37.1127 63.7735 0.459444 -12.822 0.0516248 -1.98325 -0.0740866 0.242406 -1.66021 6.42889 -8.17857 -0.0 0.0 -0.0 12.1048 23.2377 -23.9072 7.61226 28.3239 -54.7955 1.65634 39.3657 -0.592532 31.5737 -0.0150401 3.98269 3.31746 -4.13324 -24.3783 0.0 0.0 0.0 16.0 -9.57848 -16.911 5.63447 -0.272684 -0.821062 -4.19326 1.20211 0.624371 -10.0804 0.0 0.0 -0.0 0.0 -0.0 -16.429 -20.6779 -0.546576 -11.2926 -0.29778 -1.70466 28.1918 27.9157 4.4604 -12.1811 0.0 0.0 0.0 0.0 0.0 
3395.29 705.421 -1201.08 -3.05945 71.7527 11.1337 0.756133 -0.231479 -1.28005 0.757033 -0.149564 -1.29218 0.760717 0.108168 -1.2963 0.758385 -0.0978992 -1.29712 -16.7327 13.4236 12.99 -16.5936 18.4912 16.9299 -0.0 0.0 -0.0 7.39221 14.776 13.791 -42.8283 -37.1631 62.3097 0.476809 -13.2897 0.0555473 -2.05129 -0.076777 0.250676 -1.77773 6.36823 -8.9831 -0.0 0.0 -0.0 12.1122 23.8402 -23.8663 6.63591 28.0669 -54.7141 1.64751 39.2157 -0.58694 32.0894 0.00293495 4.04609 3.27753 -4.17287 -24.1024 0.0 0.0 0.0 15.5148 -8.91257 -16.5302 6.07734 -0.297527 -0.88442 -1.41277 0.951491 0.20922 -9.79065 0.0 0.0 -0.0 0.0 -0.0 -15.3689 -19.8001 0.787821 -13.7881 -0.317911 -2.08698 27.7196 27.8755 4.39784 -12.9523 0.0 0.0 0.0 0.0 0.0 
3373.65 708.901 -1199.74 -4.80852 72.635 13.0022 0.852132 -0.330396 -1.20642 0.852906 -0.252965 -1.225 0.85862 -0.00861603 -1.25081 0.856495 -0.206035 -1.23376 -17.2665 13.3904 13.0417 -17.1449 18.5437 17.0681 -0.0 0.0 -0.0 7.22795 14.9228 13.5051 -42.289 -37.1346 60.9025 0.480446 -13.3875 0.0563865 -2.08878 -0.0782643 0.255233 -1.86183 6.68472 -9.38921 -0.0 0.0 -0.0 12.0227 24.1193 -23.6335 5.77573 27.8007 -54.6259 1.56443 37.772 -0.535227 32.1375 0.00464218 4.052 3.1606 -4.74998 -23.4687 0.0 0.0 0.0 14.8938 -8.37208 -15.9127 6.3501 -0.313072 -0.923348 1.14287 0.443465 -0.168392 -9.13438 0.0 0.0 -0.0 0.0 -0.0 -15.194 -19.1676 1.32965 -15.5995 -0.322085 -2.36486 27.4516 28.4043 4.39088 -13.281 0.0 0.0 0.0 0.0 0.0 
3351.3 718.525 -1198.18 -3.92179 73.5488 12.1866 0.817118 -0.384056 -1.11666 0.817757 -0.312227 -1.13883 0.824264 -0.0828864 -1.17794 0.822427 -0.267867 -1.15007 -18.0183 13.3923 13.1927 -17.9185 18.6675 17.3558 -0.0 0.0 -0.0 7.14179 14.5696 13.384 -42.1858 -37.0033 60.0356 0.494877 -13.7745 0.0597753 -2.29393 -0.0864523 0.280145 -2.06808 6.37904 -10.9036 -0.0 0.0 -0.0 12.0676 24.2977 -23.7182 3.2047 26.8991 -54.7799 1.54187 37.3699 -0.521471 32.8215 0.0294352 4.13583 3.09563 -1.7199 -21.8537 0.0 0.0 0.0 12.7513 -7.4561 -14.921 6.64299 -0.32997 -0.965068 3.60001 -0.556097 -0.528213 -7.66807 0.0 0.0 -0.0 0.0 -0.0 -12.7372 -19.1317 2.40043 -21.5043 -0.27473 -3.26923 23.9723 26.3526 3.82946 -13.2551 0.0 0.0 0.0 0.0 0.0 
3335.06 724.853 -1197.83 -3.05835 73.6635 11.2453 0.778459 -0.427998 -1.06761 0.779022 -0.3592 -1.09268 0.786176 -0.137246 -1.14198 0.784495 -0.315867 -1.10598 -18.6613 13.1556 13.2152 -18.5705 18.3684 17.4124 -0.0 0.0 -0.0 7.19894 14.3429 13.4949 -42.0712 -36.871 58.928 0.473691 -13.2059 0.054833 -2.21433 -0.0832646 0.270482 -2.21449 6.22747 -11.9538 -0.0 0.0 -0.0 12.0368 24.3413 -23.6434 1.54004 26.2949 -55.1532 1.57964 38.0406 -0.54457 33.4297 0.0523254 4.21013 3.03533 0.196246 -20.664 0.0 0.0 0.0 11.0511 -6.64564 -14.2093 7.08423 -0.355832 -1.02776 5.2481 -1.30797 -0.767858 -6.65152 0.0 0.0 -0.0 0.0 -0.0 -10.7032 -17.9608 3.3406 -25.7021 -0.18455 -3.90695 21.6805 22.8642 3.3834 -13.4074 0.0 0.0 0.0 0.0 0.0 
3318.18 726.617 -1195.49 -2.63001 73.9643 10.6697 0.847544 -0.373936 -1.09694 0.848162 -0.303382 -1.1185 0.854367 -0.0788034 -1.15623 0.852595 -0.260408 -1.12928 -20.5328 12.9057 13.9146 -20.4384 18.0193 18.3289 -0.0 0.0 -0.0 7.01393 13.6173 13.2255 -40.7608 -37.2161 57.7731 0.527748 -14.6512 0.067846 -2.55202 -0.0968801 0.311444 -2.13819 6.09077 -11.5107 -0.0 0.0 -0.0 11.9683 24.0378 -23.517 -0.0616082 26.2521 -54.8241 1.546 37.4438 -0.523979 33.6226 0.0597484 4.23364 3.08022 1.40334 -20.497 0.0 0.0 0.0 9.92942 -6.0083 -13.4954 7.47486 -0.379131 -1.08309 6.14824 -1.95231 -0.898748 -5.88989 0.0 0.0 -0.0 0.0 -0.0 -8.70086 -16.0618 4.14801 -28.6929 -0.0919062 -4.35656 20.05 22.5898 3.14924 -13.5549 0.0 0.0 0.0 0.0 0.0 
3307.69 729.502 -1181.78 -3.51216 72.7125 11.1251 0.882075 -0.364873 -1.063 0.882654 -0.296496 -1.08406 0.888523 -0.0794517 -1.12106 0.88686 -0.255495 -1.09445 -20.9879 12.7723 13.4392 -20.9548 18.1102 17.9433 -0.0 0.0 -0.0 8.39021 12.7445 15.6681 -38.7721 -36.8509 56.8727 0.439131 -12.2727 0.0472116 -1.54354 -0.0569366 0.188882 -2.08202 6.7688 -10.8076 -0.0 0.0 -0.0 11.7595 23.8792 -23.0554 -1.18262 26.1981 -54.4632 1.58277 38.0958 -0.546503 33.1541 0.041856 4.1765 3.44584 2.16405 -22.827 0.0 0.0 0.0 9.21411 -5.41573 -12.1114 8.97467 -0.472088 -1.29407 6.49302 -2.34974 -0.949281 -5.50973 0.0 0.0 -0.0 0.0 -0.0 -7.07427 -4.92221 3.8725 -31.3847 0.0114555 -4.75668 19.3377 12.9609 2.82011 -14.0695 0.0 0.0 0.0 0.0 0.0 
3295.75 731.474 -1175.86 -3.68461 71.9759 10.6272 0.850655 -0.27096 -1.02345 0.851214 -0.205289 -1.03862 0.855152 0.00177695 -1.05871 0.853626 -0.165439 -1.04571 -21.2863 12.757 13.2164 -21.2914 18.2617 17.8032 -0.0 0.0 -0.0 8.98063 11.492 16.833 -37.5601 -36.5449 55.6002 0.374083 -10.4986 0.034369 -0.839745 -0.0303436 0.102947 -2.06944 7.33676 -10.4489 -0.0 0.0 -0.0 11.3984 23.9858 -22.2225 -2.60935 27.0751 -54.155 1.61183 38.6028 -0.564533 32.3595 0.0125793 4.07924 3.61498 1.96266 -24.1516 0.0 0.0 0.0 8.71526 -4.97821 -10.8992 9.07943 -0.478788 -1.30872 6.71623 -2.65315 -0.982169 -5.22746 0.0 0.0 -0.0 0.0 -0.0 -5.72488 2.84129 3.14359 -33.4306 0.102549 -5.05738 18.7796 6.22529 2.65078 -14.4084 0.0 0.0 0.0 0.0 0.0 
3278.77 731.86 -1167.84 -4.00497 71.5001 10.656 0.670316 -0.329588 -1.1888 0.671067 -0.253279 -1.20736 0.676744 -0.0084553 -1.23361 0.674678 -0.20316 -1.2168 -21.2587 12.8235 13.2179 -21.2697 18.3831 17.829 -0.0 0.0 -0.0 9.71093 11.2234 18.1877 -36.7172 -37.1747 54.0119 0.359142 -10.088 0.0316991 -0.140888 -0.00498558 0.0173022 -1.84774 6.47837 -9.39404 -0.0 0.0 -0.0 11.2266 23.6762 -21.8622 -3.14633 25.8809 -53.9301 1.60923 38.5577 -0.562911 31.9763 -0.00105473 4.03221 3.78678 1.52442 -25.6087 0.0 0.0 0.0 8.19339 -4.21086 -9.49775 8.42199 -0.437189 -1.2166 10.7908 -1.04879 -1.54812 -4.76609 0.0 0.0 -0.0 0.0 -0.0 -5.00194 12.391 2.00068 -35.9791 0.230972 -5.42719 18.3651 -0.277408 2.54485 -14.6708 0.0 0.0 0.0 0.0 0.0 
3263.2 743.075 -1166.62 -3.99442 71.7106 10.1757 0.605332 -0.322874 -1.2434 0.60616 -0.243105 -1.26143 0.61189 0.0137109 -1.28456 0.609637 -0.189317 -1.27061 -22.5337 12.7601 14.7089 -22.4408 17.8849 19.4209 -0.0 0.0 -0.0 10.0481 11.8018 18.7376 -36.8641 -37.1947 51.4523 0.407673 -11.4175 0.0407542 0.186601 0.00653755 -0.0229347 -1.97442 7.09215 -9.93877 -0.0 0.0 -0.0 11.1635 23.4787 -21.7377 -6.45192 25.2133 -54.0509 1.6744 39.6707 -0.604026 31.4989 -0.0176001 3.97348 3.76645 2.90231 -24.874 0.0 0.0 0.0 7.18534 -4.02332 -8.75087 8.271 -0.427785 -1.19538 7.91184 -2.85583 -1.15315 -3.83999 0.0 0.0 -0.0 0.0 -0.0 -2.39938 15.3429 1.07872 -40.1331 0.475255 -6.0169 18.3049 -0.709399 2.53493 -14.6248 0.0 0.0 0.0 0.0 0.0 
3249.62 744.316 -1160.92 -1.7242 70.8352 7.30902 0.390459 -0.320227 -1.30874 0.391381 -0.236307 -1.32646 0.39732 0.0384068 -1.34679 0.394831 -0.174756 -1.33596 -23.1653 12.6539 15.5075 -23.0004 17.4883 20.2294 -0.0 0.0 -0.0 10.4461 11.5586 19.5002 -36.485 -37.468 49.9604 0.441584 -12.3392 0.0477345 0.436598 0.0151785 -0.0536939 -1.92825 6.83514 -9.7567 -0.0 0.0 -0.0 10.9315 23.8399 -21.178 -8.2305 24.7645 -53.9393 1.73206 40.6264 -0.641204 30.9791 -0.0350582 3.90938 3.72215 2.89285 -24.5497 0.0 0.0 0.0 6.64472 -4.1362 -7.60481 7.11105 -0.357419 -1.03156 7.18051 -3.31915 -1.05083 -3.34692 0.0 0.0 -0.0 0.0 -0.0 -1.03244 20.1531 -0.108097 -39.183 0.415612 -5.88359 17.1317 -5.34523 2.37047 -15.3341 0.0 0.0 0.0 0.0 0.0 
3234.79 739.8 -1159.88 -1.48016 70.8975 6.73865 0.366668 -0.29941 -1.34965 0.367656 -0.21293 -1.36597 0.373219 0.0699205 -1.38069 0.37059 -0.14899 -1.37441 -23.6015 12.5422 15.5682 -23.4398 17.3631 20.3321 -0.0 0.0 -0.0 10.5297 11.4452 19.6698 -36.3773 -37.7968 48.3714 0.503425 -14.0031 0.061827 0.631231 0.0218128 -0.0776667 -1.88125 6.41921 -9.64404 -0.0 0.0 -0.0 10.8998 24.0033 -21.0906 -9.98286 24.3899 -54.181 1.74069 40.7672 -0.646831 30.4364 -0.0526623 3.8423 3.65998 2.77389 -24.141 0.0 0.0 0.0 5.64776 -3.73602 -6.62643 6.8807 -0.343843 -0.998866 10.1307 -3.7474 -1.46943 -2.73817 0.0 0.0 -0.0 0.0 -0.0 0.344654 23.2572 -0.976355 -45.5951 0.860531 -6.76309 18.1666 -6.14423 2.50139 -14.0183 0.0 0.0 0.0 0.0 0.0 
3220.67 735.1 -1161.91 -0.118614 70.6275 5.36985 0.478099 -0.248774 -1.01076 0.478649 -0.183956 -1.02454 0.482203 0.0267233 -1.04058 0.480719 -0.137944 -1.03174 -22.9212 14.7325 14.3794 -23.167 21.9565 20.2041 -0.0 0.0 -0.0 10.5486 11.1244 19.747 -36.7611 -37.2249 45.5067 0.54203 -15.0299 0.071504 0.929158 0.0318102 -0.114405 -2.02155 4.44987 -11.5203 -0.0 0.0 -0.0 10.4967 22.0382 -20.3589 -11.1927 24.1037 -55.7796 1.78607 41.4976 -0.676686 30.0367 -0.0652207 3.79279 3.08777 -0.787808 -21.4318 0.0 0.0 0.0 4.8914 -2.28494 -6.08905 6.04468 -0.295678 -0.879755 16.9141 -3.38611 -2.38293 -3.67362 0.0 0.0 -0.0 0.0 -0.0 1.63513 25.0165 -2.00694 -50.2543 1.24439 -7.36875 14.3022 -7.33546 2.00085 -13.7182 0.0 0.0 0.0 0.0 0.0 
